HIERARCHY
ROOT Hips
{
	OFFSET 0.000000 100.481300 0.000000
	CHANNELS 6 Xposition Yposition Zposition Xrotation Yrotation Zrotation
	JOINT Spine
	{
		OFFSET -0.279200 12.230698 -2.892100
		CHANNELS 3 Xrotation Yrotation Zrotation
		JOINT Spine1
		{
			OFFSET -0.325700 14.269203 -3.374200
			CHANNELS 3 Xrotation Yrotation Zrotation
			JOINT Spine2
			{
				OFFSET -0.372300 16.307602 -0.352600
				CHANNELS 3 Xrotation Yrotation Zrotation
				JOINT Neck
				{
					OFFSET -0.418800 17.814194 8.416900
					CHANNELS 3 Xrotation Yrotation Zrotation
					JOINT Head
					{
						OFFSET 0.000000 7.031097 3.806800
						CHANNELS 3 Xrotation Yrotation Zrotation
						JOINT HeadTop_End
						{
							OFFSET 0.000000 24.646606 12.978600
							CHANNELS 3 Xrotation Yrotation Zrotation
							End Site
							{
								OFFSET 0.000000 27.854965 0.000000
							}
						}
					}
				}
				JOINT LeftShoulder
				{
					OFFSET 16.952999 14.495407 -7.737500
					CHANNELS 3 Xrotation Yrotation Zrotation
					JOINT LeftArm
					{
						OFFSET 9.308998 -2.777710 0.208600
						CHANNELS 3 Xrotation Yrotation Zrotation
						JOINT LeftForeArm
						{
							OFFSET 29.972298 0.000000 0.000000
							CHANNELS 3 Xrotation Yrotation Zrotation
							JOINT LeftHand
							{
								OFFSET 26.026505 0.000000 0.000000
								CHANNELS 3 Xrotation Yrotation Zrotation
								JOINT LeftHandThumb1
								{
									OFFSET 12.240501 -7.147949 9.207150
									CHANNELS 3 Xrotation Yrotation Zrotation
									JOINT LeftHandThumb2
									{
										OFFSET 4.138618 -2.389435 2.389433
										CHANNELS 3 Xrotation Yrotation Zrotation
										JOINT LeftHandThumb3
										{
											OFFSET 2.726913 -1.574387 1.574386
											CHANNELS 3 Xrotation Yrotation Zrotation
											JOINT LeftHandThumb4
											{
												OFFSET 3.941010 -2.275345 2.275342
												CHANNELS 3 Xrotation Yrotation Zrotation
												End Site
												{
													OFFSET -0.005798 5.087799 0.009903
												}
											}
										}
									}
								}
								JOINT LeftHandIndex1
								{
									OFFSET 24.424698 -1.985611 5.953459
									CHANNELS 3 Xrotation Yrotation Zrotation
									JOINT LeftHandIndex2
									{
										OFFSET 6.426697 0.000000 0.000000
										CHANNELS 3 Xrotation Yrotation Zrotation
										JOINT LeftHandIndex3
										{
											OFFSET 5.337898 0.000000 0.000000
											CHANNELS 3 Xrotation Yrotation Zrotation
											JOINT LeftHandIndex4
											{
												OFFSET 4.409401 0.000000 0.000000
												CHANNELS 3 Xrotation Yrotation Zrotation
												End Site
												{
													OFFSET 0.000000 4.409363 0.014373
												}
											}
										}
									}
								}
								JOINT LeftHandMiddle1
								{
									OFFSET 23.810104 0.000000 0.000000
									CHANNELS 3 Xrotation Yrotation Zrotation
									JOINT LeftHandMiddle2
									{
										OFFSET 7.176498 0.000000 0.000000
										CHANNELS 3 Xrotation Yrotation Zrotation
										JOINT LeftHandMiddle3
										{
											OFFSET 6.774902 0.000000 0.000000
											CHANNELS 3 Xrotation Yrotation Zrotation
											JOINT LeftHandMiddle4
											{
												OFFSET 5.403328 0.000000 0.000000
												CHANNELS 3 Xrotation Yrotation Zrotation
												End Site
												{
													OFFSET -0.027702 5.403244 0.017414
												}
											}
										}
									}
								}
								JOINT LeftHandRing1
								{
									OFFSET 22.908401 -0.839279 -6.020567
									CHANNELS 3 Xrotation Yrotation Zrotation
									JOINT LeftHandRing2
									{
										OFFSET 6.337502 0.000000 0.000000
										CHANNELS 3 Xrotation Yrotation Zrotation
										JOINT LeftHandRing3
										{
											OFFSET 5.779297 0.000000 0.000000
											CHANNELS 3 Xrotation Yrotation Zrotation
											JOINT LeftHandRing4
											{
												OFFSET 4.965698 0.000000 0.000000
												CHANNELS 3 Xrotation Yrotation Zrotation
												End Site
												{
													OFFSET 0.000000 4.965668 0.016186
												}
											}
										}
									}
								}
								JOINT LeftHandPinky1
								{
									OFFSET 20.037003 -1.530319 -10.950146
									CHANNELS 3 Xrotation Yrotation Zrotation
									JOINT LeftHandPinky2
									{
										OFFSET 5.254700 0.000000 0.000000
										CHANNELS 3 Xrotation Yrotation Zrotation
										JOINT LeftHandPinky3
										{
											OFFSET 4.810204 0.000000 0.000000
											CHANNELS 3 Xrotation Yrotation Zrotation
											JOINT LeftHandPinky4
											{
												OFFSET 3.647202 0.000000 0.000000
												CHANNELS 3 Xrotation Yrotation Zrotation
												End Site
												{
													OFFSET 0.000000 3.647186 0.011889
												}
											}
										}
									}
								}
							}
						}
					}
				}
				JOINT RightShoulder
				{
					OFFSET -15.141001 14.495407 -7.737500
					CHANNELS 3 Xrotation Yrotation Zrotation
					JOINT RightArm
					{
						OFFSET -9.308998 -2.777710 0.208500
						CHANNELS 3 Xrotation Yrotation Zrotation
						JOINT RightForeArm
						{
							OFFSET -29.972300 0.000000 0.000000
							CHANNELS 3 Xrotation Yrotation Zrotation
							JOINT RightHand
							{
								OFFSET -26.026505 0.000000 0.000000
								CHANNELS 3 Xrotation Yrotation Zrotation
								JOINT RightHandThumb1
								{
									OFFSET -12.240601 -7.148026 9.207092
									CHANNELS 3 Xrotation Yrotation Zrotation
									JOINT RightHandThumb2
									{
										OFFSET -4.138618 -2.389435 2.389433
										CHANNELS 3 Xrotation Yrotation Zrotation
										JOINT RightHandThumb3
										{
											OFFSET -2.726974 -1.574417 1.574421
											CHANNELS 3 Xrotation Yrotation Zrotation
											JOINT RightHandThumb4
											{
												OFFSET -3.941010 -2.275345 2.275343
												CHANNELS 3 Xrotation Yrotation Zrotation
												End Site
												{
													OFFSET 0.005814 5.087799 0.009927
												}
											}
										}
									}
								}
								JOINT RightHandIndex1
								{
									OFFSET -24.424698 -1.985657 5.953444
									CHANNELS 3 Xrotation Yrotation Zrotation
									JOINT RightHandIndex2
									{
										OFFSET -6.426697 0.000000 0.000000
										CHANNELS 3 Xrotation Yrotation Zrotation
										JOINT RightHandIndex3
										{
											OFFSET -5.337898 0.000000 0.000000
											CHANNELS 3 Xrotation Yrotation Zrotation
											JOINT RightHandIndex4
											{
												OFFSET -4.409401 0.000000 0.000000
												CHANNELS 3 Xrotation Yrotation Zrotation
												End Site
												{
													OFFSET 0.000000 4.409363 0.014408
												}
											}
										}
									}
								}
								JOINT RightHandMiddle1
								{
									OFFSET -23.810097 0.000000 0.000000
									CHANNELS 3 Xrotation Yrotation Zrotation
									JOINT RightHandMiddle2
									{
										OFFSET -7.176498 0.000000 0.000000
										CHANNELS 3 Xrotation Yrotation Zrotation
										JOINT RightHandMiddle3
										{
											OFFSET -6.774902 0.000000 0.000000
											CHANNELS 3 Xrotation Yrotation Zrotation
											JOINT RightHandMiddle4
											{
												OFFSET -5.403328 0.000000 0.000000
												CHANNELS 3 Xrotation Yrotation Zrotation
												End Site
												{
													OFFSET 0.027702 5.403244 0.017457
												}
											}
										}
									}
								}
								JOINT RightHandRing1
								{
									OFFSET -22.908302 -0.839325 -6.020576
									CHANNELS 3 Xrotation Yrotation Zrotation
									JOINT RightHandRing2
									{
										OFFSET -6.337502 0.000000 0.000000
										CHANNELS 3 Xrotation Yrotation Zrotation
										JOINT RightHandRing3
										{
											OFFSET -5.779297 0.000000 0.000000
											CHANNELS 3 Xrotation Yrotation Zrotation
											JOINT RightHandRing4
											{
												OFFSET -4.965698 0.000000 0.000000
												CHANNELS 3 Xrotation Yrotation Zrotation
												End Site
												{
													OFFSET 0.000000 4.965668 0.016226
												}
											}
										}
									}
								}
								JOINT RightHandPinky1
								{
									OFFSET -20.037003 -1.530334 -10.950259
									CHANNELS 3 Xrotation Yrotation Zrotation
									JOINT RightHandPinky2
									{
										OFFSET -5.254700 0.000000 0.000000
										CHANNELS 3 Xrotation Yrotation Zrotation
										JOINT RightHandPinky3
										{
											OFFSET -4.810204 0.000000 0.000000
											CHANNELS 3 Xrotation Yrotation Zrotation
											JOINT RightHandPinky4
											{
												OFFSET -3.647202 0.000000 0.000000
												CHANNELS 3 Xrotation Yrotation Zrotation
												End Site
												{
													OFFSET 0.000000 3.647186 0.011917
												}
											}
										}
									}
								}
							}
						}
					}
				}
			}
		}
	}
	JOINT LeftUpLeg
	{
		OFFSET 15.427100 -6.655098 0.678600
		CHANNELS 3 Xrotation Yrotation Zrotation
		JOINT LeftLeg
		{
			OFFSET 4.081073 -39.591068 13.024000
			CHANNELS 3 Xrotation Yrotation Zrotation
			JOINT LeftFoot
			{
				OFFSET -4.081074 -37.707932 -15.979700
				CHANNELS 3 Xrotation Yrotation Zrotation
				JOINT LeftToeBase
				{
					OFFSET 5.346399 -15.068900 20.645000
					CHANNELS 3 Xrotation Yrotation Zrotation
					JOINT LeftToe_End
					{
						OFFSET 2.754700 0.931300 11.300900
						CHANNELS 3 Xrotation Yrotation Zrotation
						End Site
						{
							OFFSET 0.000000 11.669021 0.000000
						}
					}
				}
			}
		}
	}
	JOINT RightUpLeg
	{
		OFFSET -15.569500 -6.655098 0.678600
		CHANNELS 3 Xrotation Yrotation Zrotation
		JOINT RightLeg
		{
			OFFSET -4.081825 -39.591045 13.023800
			CHANNELS 3 Xrotation Yrotation Zrotation
			JOINT RightFoot
			{
				OFFSET 4.081824 -37.707954 -15.979600
				CHANNELS 3 Xrotation Yrotation Zrotation
				JOINT RightToeBase
				{
					OFFSET -5.346400 -15.068900 20.645000
					CHANNELS 3 Xrotation Yrotation Zrotation
					JOINT RightToe_End
					{
						OFFSET -2.754700 0.931300 11.300900
						CHANNELS 3 Xrotation Yrotation Zrotation
						End Site
						{
							OFFSET 0.000000 11.669021 0.000000
						}
					}
				}
			}
		}
	}
}
MOTION
Frames: 4
Frame Time: 0.033333
16.063040 88.769814 192.013748 -3.173105 -12.083255 -4.336119 4.043932 0.879343 -0.023592 8.119987 1.164352 -1.785077 8.119988 1.164358 -1.785076 -8.383649 20.587297 -4.292100 -14.994941 19.787188 -0.243703 0.000000 0.000002 0.000000 2.539220 12.330260 -11.703366 1.897060 -32.127045 -44.842688 -0.029230 -46.943996 0.086943 6.202783 -8.978416 1.134157 -8.059624 0.293792 -3.596898 7.008423 8.505717 -0.856282 0.000002 -0.000003 0.000002 0.000003 -0.000002 0.000004 -6.330143 1.184235 -30.987260 0.293641 0.813450 -43.085223 0.000000 0.000003 0.000001 0.000002 -0.000000 0.000002 -0.997330 0.143908 -46.259939 -1.586548 -3.414459 -48.800974 0.000000 0.000002 -0.000005 -0.000001 -0.000001 0.000000 -3.294558 0.148812 -55.237758 -2.455428 -4.335924 -60.279862 -0.000002 0.000001 -0.000002 0.000003 -0.000002 0.000001 -3.799132 -2.955406 -74.075048 -3.556443 -6.619041 -61.651910 0.000002 0.000001 0.000001 -0.000002 -0.000000 0.000001 1.564243 -11.417663 1.435623 4.149325 28.252931 50.394051 0.382952 80.161395 -0.457042 7.470778 -0.790654 12.184153 17.044558 -21.850262 6.362652 2.435295 -2.389392 -6.622075 0.000001 -0.000001 -0.000007 0.000000 -0.000002 -0.000002 4.294875 5.100859 36.764446 0.575780 -1.853059 39.380965 -0.000002 -0.000000 -0.000001 0.000001 -0.000000 -0.000001 -1.002850 -2.276443 46.345586 -3.427050 0.536282 49.240896 0.000002 0.000004 0.000010 0.000000 0.000000 -0.000000 -4.333813 4.277284 59.094981 -1.692055 4.196829 41.420494 -0.000006 0.000003 0.000003 -0.000001 -0.000001 -0.000001 -1.648110 -2.261564 58.010443 -4.872300 10.977516 56.852087 0.000002 0.000002 -0.000002 -0.000000 0.000002 -0.000000 -35.343770 4.143649 9.365820 44.263123 -3.165977 -1.315915 -11.053880 7.798366 -5.145532 -0.630042 1.538101 -0.649248 -0.000000 0.000000 0.000001 -5.447913 -1.453267 8.896080 35.071041 -2.265906 0.571877 -16.974058 16.125868 -4.708671 -6.645291 2.751987 -2.678314 0.000000 0.000000 -0.000000 
16.141504 89.279503 194.401276 -3.044631 -13.262288 -4.251246 3.913456 0.892848 -0.857252 7.836494 1.279060 -1.720172 7.836494 1.279059 -1.720173 -7.712743 20.927558 -4.219587 -15.307733 20.049783 0.272828 -0.000000 0.000000 0.000000 2.510172 13.370366 -11.080652 5.189579 -30.942666 -43.697115 -0.024807 -49.192873 0.092017 5.994627 -8.233119 0.424455 -9.161509 -0.342628 -3.344372 7.641383 7.653026 -1.274731 -0.000001 0.000002 0.000000 -0.000003 0.000001 0.000000 -6.253099 1.050359 -29.241652 0.292600 0.808614 -42.980646 0.000000 0.000003 -0.000000 0.000002 0.000002 0.000002 -0.782550 0.321231 -45.252571 -1.554971 -3.386202 -48.265084 -0.000001 -0.000002 -0.000003 -0.000001 -0.000003 0.000003 -3.184103 0.202115 -54.891413 -2.444262 -4.327160 -60.129290 0.000001 -0.000001 -0.000003 0.000001 0.000000 -0.000001 -3.969843 -3.067392 -74.695591 -3.508417 -6.592310 -61.135500 -0.000003 0.000000 -0.000003 -0.000006 -0.000002 0.000001 1.565738 -11.845585 1.674535 4.948269 28.587268 49.309741 0.438809 81.113510 -0.511800 7.298733 -0.942435 12.285288 17.252081 -21.770567 6.565587 2.476347 -2.276608 -6.658384 0.000002 0.000002 -0.000006 -0.000002 0.000000 -0.000001 4.319529 5.181985 36.774691 0.574101 -1.851593 39.332372 0.000000 0.000001 0.000001 0.000001 -0.000003 0.000001 -1.021494 -2.264562 46.283851 -3.363808 0.622356 49.324310 -0.000002 0.000002 0.000010 -0.000001 -0.000001 0.000000 -4.262716 4.269933 58.931261 -1.701814 4.204113 41.557514 -0.000005 0.000001 0.000003 0.000001 -0.000002 0.000001 -1.693287 -2.251263 57.711574 -4.894391 10.996375 57.054404 0.000001 0.000001 -0.000001 -0.000001 0.000001 -0.000001 -31.863959 2.418256 8.226337 35.429209 -2.988165 -0.837537 -6.441323 6.910265 -6.460987 -0.404467 1.262672 -0.518803 0.000000 0.000000 -0.000000 -3.092753 -1.045310 8.021303 33.529795 -2.447030 0.496211 -17.671065 17.625751 -4.067010 -7.030864 2.972493 -2.655675 0.000000 -0.000000 0.000000 
16.276421 89.034920 196.938614 -3.046156 -14.586673 -4.724776 3.708178 0.903576 -1.193254 7.414370 1.317374 -1.602519 7.414374 1.317370 -1.602518 -7.002790 21.087958 -3.957477 -15.332668 20.065118 1.014515 -0.000000 0.000002 -0.000000 2.451761 14.608993 -10.253292 7.982091 -30.536420 -43.360459 -0.021742 -51.118078 0.095125 5.695283 -7.608737 -0.433594 -9.947925 -0.849302 -3.270579 8.151108 6.977535 -1.613822 0.000003 -0.000001 0.000004 0.000003 -0.000000 -0.000001 -6.150273 1.200791 -28.691067 0.292776 0.804495 -42.959230 -0.000002 0.000005 0.000000 0.000001 0.000004 0.000005 -0.591126 0.491140 -45.247954 -1.586684 -3.419095 -48.778339 0.000003 -0.000002 -0.000001 -0.000004 0.000000 -0.000002 -3.281448 0.099396 -55.650213 -2.507445 -4.354641 -60.989764 0.000005 -0.000001 0.000000 0.000003 -0.000003 0.000000 -4.932151 -3.440905 -76.027751 -3.500793 -6.572158 -61.037302 0.000002 0.000002 0.000002 -0.000000 -0.000000 0.000001 1.549692 -12.090698 1.794665 5.642955 28.431298 48.307295 0.519670 82.271159 -0.591583 7.036763 -0.917377 12.458176 17.455344 -21.805664 6.728132 2.478217 -2.230763 -6.695031 0.000002 -0.000001 -0.000008 -0.000000 0.000000 0.000001 4.363807 5.230262 36.874135 0.576767 -1.853527 39.416468 -0.000002 0.000002 0.000001 -0.000001 0.000003 -0.000000 -1.041961 -2.248073 46.341416 -3.302117 0.707709 49.443743 -0.000000 0.000000 0.000013 0.000000 -0.000001 -0.000001 -4.237816 4.284610 58.892848 -1.712548 4.212416 41.707239 -0.000006 -0.000001 0.000006 -0.000001 -0.000000 0.000001 -1.736389 -2.223768 57.616150 -4.911877 11.013453 57.230012 0.000001 0.000002 -0.000001 0.000003 0.000002 0.000003 -29.986095 0.986046 7.443059 32.479517 -2.335339 -0.350039 -2.025303 5.693159 -3.955197 1.317251 0.177889 0.072577 -0.000000 0.000000 0.000000 -0.951553 -0.484343 7.606448 33.016513 -2.524349 0.426901 -19.310727 18.825900 -3.195072 -7.206616 3.198311 -2.715975 -0.000000 -0.000000 0.000000 
16.409492 88.080910 199.564163 -2.903106 -15.722139 -5.246694 3.438072 0.830643 -1.000839 6.879752 1.120014 -1.654531 6.879750 1.120013 -1.654532 -6.811186 20.513073 -3.566129 -14.909560 19.069910 2.275057 -0.000000 -0.000001 0.000000 2.394672 15.862250 -9.525086 9.950377 -30.870064 -43.585271 -0.021000 -52.313990 0.094321 5.997359 -7.268073 -1.571461 -10.877501 -2.215698 -3.587977 8.471438 6.576494 -1.826349 0.000002 0.000001 0.000000 0.000002 -0.000000 0.000000 -6.348584 0.676805 -27.452441 0.288918 0.797985 -42.645758 0.000002 0.000002 -0.000000 0.000003 0.000003 0.000002 -0.552155 0.535372 -45.026011 -1.665414 -3.495026 -50.051285 0.000003 -0.000002 0.000000 -0.000002 0.000000 0.000001 -2.870428 0.256751 -57.251250 -2.685243 -4.431739 -63.378807 -0.000004 -0.000001 0.000001 -0.000002 -0.000002 0.000001 -4.794777 -3.765949 -78.700984 -3.542526 -6.560243 -61.455706 0.000001 0.000002 0.000002 0.000000 -0.000000 0.000001 1.521497 -12.108762 1.857306 5.720412 27.769486 48.059714 0.574728 83.047717 -0.646333 6.810413 -0.593508 12.409619 17.621970 -21.806899 6.863023 2.421466 -2.284848 -6.732433 0.000001 -0.000002 -0.000009 -0.000001 -0.000002 -0.000001 4.374485 5.333673 36.779281 0.579013 -1.855112 39.487557 -0.000000 -0.000001 0.000006 -0.000001 -0.000003 -0.000003 -1.030345 -2.268370 46.169552 -3.242424 0.792541 49.617083 0.000006 -0.000002 0.000012 -0.000000 -0.000003 0.000000 -4.154256 4.265427 58.789877 -1.721000 4.218285 41.825988 -0.000004 -0.000001 0.000006 0.000006 -0.000003 0.000002 -1.774911 -2.199146 57.525212 -4.921401 11.027749 57.361192 -0.000000 -0.000000 0.000001 -0.000001 -0.000000 0.000001 -29.697874 0.521204 7.780992 35.094147 -2.332603 -0.549196 -3.185218 5.913348 -3.358730 2.124939 -0.423283 0.564487 0.000000 -0.000000 -0.000000 0.162550 0.539949 7.443219 34.208097 -2.369288 0.478956 -21.241499 18.942625 -2.832321 -8.002026 3.619482 -2.632921 -0.000000 0.000000 -0.000000 
